<?xml version="1.0" encoding="UTF-8" standalone="no"?>
<!-- Created with Inkscape (http://www.inkscape.org/) -->

<svg
   xmlns:dc="http://purl.org/dc/elements/1.1/"
   xmlns:cc="http://creativecommons.org/ns#"
   xmlns:rdf="http://www.w3.org/1999/02/22-rdf-syntax-ns#"
   xmlns:svg="http://www.w3.org/2000/svg"
   xmlns="http://www.w3.org/2000/svg"
   xmlns:sodipodi="http://sodipodi.sourceforge.net/DTD/sodipodi-0.dtd"
   xmlns:inkscape="http://www.inkscape.org/namespaces/inkscape"
   width="22"
   height="22"
   id="svg5195"
   version="1.1"
   inkscape:version="0.48.3.1 r9886"
   inkscape:export-filename="/home/kyle/Code/UnderBudget/src/swing/com/vimofthevine/underbudget/swing/menu/icons/small-import.png"
   inkscape:export-xdpi="65.449997"
   inkscape:export-ydpi="65.449997"
   sodipodi:docname="import.svg">
  <defs
     id="defs5197" />
  <sodipodi:namedview
     id="base"
     pagecolor="#ffffff"
     bordercolor="#666666"
     borderopacity="1.0"
     inkscape:pageopacity="0.0"
     inkscape:pageshadow="2"
     inkscape:zoom="37.772727"
     inkscape:cx="11"
     inkscape:cy="9.9410349"
     inkscape:current-layer="layer16"
     showgrid="true"
     inkscape:grid-bbox="true"
     inkscape:document-units="px"
     inkscape:window-width="1680"
     inkscape:window-height="999"
     inkscape:window-x="0"
     inkscape:window-y="0"
     inkscape:window-maximized="1">
    <inkscape:grid
       type="xygrid"
       id="grid5203"
       empspacing="5"
       visible="true"
       enabled="true"
       snapvisiblegridlinesonly="true"
       spacingx="0.5px"
       spacingy="0.5px" />
  </sodipodi:namedview>
  <metadata
     id="metadata5200">
    <rdf:RDF>
      <cc:Work
         rdf:about="">
        <dc:format>image/svg+xml</dc:format>
        <dc:type
           rdf:resource="http://purl.org/dc/dcmitype/StillImage" />
        <dc:title></dc:title>
      </cc:Work>
    </rdf:RDF>
  </metadata>
  <g
     id="layer1"
     inkscape:label="hand"
     inkscape:groupmode="layer"
     transform="translate(0,-10)"
     style="display:inline">
    <path
       style="fill:#e9b96e;fill-opacity:1;stroke:#231705;stroke-width:1px;stroke-linecap:butt;stroke-linejoin:round;stroke-opacity:1"
       d="m 9,31 c 0,0 1.907997,-2.74091 3,-4 0.308865,-0.356124 0.691135,-0.643876 1,-1 1.092003,-1.25909 3,-4 3,-4 l 3,-4 c 0.5,-0.5 0.5,-1 0,-1 l -4,4 3,-5 c 0.5,-1 0.5,-1.5 0,-2 -0.5,0 -2.666667,4 -4,6 l 3,-6.5 c 0,-0.333333 0.235702,-0.764298 0,-1 -0.235702,-0.235702 -0.72172,-0.183497 -1,0 -2,5 -3,6.5 -3,6.5 l 0,-2 1,-3 c 0,0 0.235702,-0.764298 0,-1 -0.235702,-0.235702 -0.764298,-0.235702 -1,0 -1,1 -2,6 -2,6 L 9,22 8,21 c 0,-1 1,-1 1,-5 -1,-1 -1.49132,-0.430917 -2,0 -1.5470898,1.310582 -1,6 -1,6 0,0 0.2297529,2.026751 0,3 -0.5137431,2.176251 -3,6 -3,6 z"
       id="path5713"
       inkscape:connector-curvature="0"
       sodipodi:nodetypes="caaccccccccaccccasccccacacc" />
  </g>
  <g
     inkscape:groupmode="layer"
     id="layer14"
     inkscape:label="check"
     style="display:inline">
    <rect
       style="fill:#c2f095;fill-opacity:1;stroke:#142305;stroke-width:1;stroke-linecap:round;stroke-linejoin:round;stroke-miterlimit:4;stroke-opacity:1;stroke-dasharray:none;stroke-dashoffset:0"
       id="rect5716"
       width="17.5"
       height="7"
       x="3"
       y="4.5" />
  </g>
  <g
     inkscape:groupmode="layer"
     id="layer16"
     inkscape:label="check lines">
    <path
       style="fill:none;stroke:#555753;stroke-width:0.50000000000000000;stroke-linecap:round;stroke-linejoin:miter;stroke-opacity:1;stroke-miterlimit:4;stroke-dasharray:none"
       d="m 18,5.5 1,0"
       id="path5744"
       inkscape:connector-curvature="0" />
    <path
       style="fill:none;stroke:#555753;stroke-width:0.50000000000000000;stroke-linecap:round;stroke-linejoin:miter;stroke-opacity:1;stroke-miterlimit:4;stroke-dasharray:none"
       d="M 14.5,6 17,6"
       id="path5746"
       inkscape:connector-curvature="0" />
    <path
       style="fill:none;stroke:#555753;stroke-width:0.50000000000000000;stroke-linecap:round;stroke-linejoin:miter;stroke-opacity:1;stroke-miterlimit:4;stroke-dasharray:none"
       d="M 4.5,7 13,7"
       id="path5748"
       inkscape:connector-curvature="0" />
    <path
       style="fill:none;stroke:#555753;stroke-width:0.50000000000000000;stroke-linecap:round;stroke-linejoin:miter;stroke-opacity:1;stroke-miterlimit:4;stroke-dasharray:none"
       d="M 4,8 16,8"
       id="path5750"
       inkscape:connector-curvature="0" />
    <path
       style="fill:none;stroke:#555753;stroke-width:0.5;stroke-linecap:round;stroke-linejoin:miter;stroke-opacity:1;stroke-miterlimit:4;stroke-dasharray:none"
       d="m 4,10.5 6.5,0"
       id="path5752"
       inkscape:connector-curvature="0" />
    <path
       style="fill:none;stroke:#555753;stroke-width:0.50000000000000000;stroke-linecap:round;stroke-linejoin:miter;stroke-opacity:1;stroke-miterlimit:4;stroke-dasharray:none"
       d="m 12.5,10.5 6.5,0"
       id="path5754"
       inkscape:connector-curvature="0" />
    <path
       style="fill:none;stroke:#555753;stroke-width:0.50000000000000000;stroke-linecap:round;stroke-linejoin:round;stroke-opacity:1;stroke-miterlimit:4;stroke-dasharray:none"
       d="m 18,7.5 1.5,0 0,0.5 -1.5,0 z"
       id="path5756"
       inkscape:connector-curvature="0" />
    <path
       inkscape:connector-curvature="0"
       id="path5758"
       d="M 4.5,9 6,9 6,9.5 4.5,9.5 z"
       style="fill:none;stroke:#555753;stroke-width:0.5;stroke-linecap:round;stroke-linejoin:round;stroke-miterlimit:4;stroke-opacity:1;stroke-dasharray:none" />
    <path
       style="fill:none;stroke:#555753;stroke-width:0.50000000000000000;stroke-linecap:round;stroke-linejoin:miter;stroke-opacity:1;stroke-miterlimit:4;stroke-dasharray:none"
       d="m 5,5.5 3,0"
       id="path5760"
       inkscape:connector-curvature="0" />
    <path
       inkscape:connector-curvature="0"
       id="path5762"
       d="M 5,6 8,6"
       style="fill:none;stroke:#555753;stroke-width:0.5;stroke-linecap:round;stroke-linejoin:miter;stroke-miterlimit:4;stroke-opacity:1;stroke-dasharray:none" />
  </g>
  <g
     inkscape:groupmode="layer"
     id="layer15"
     inkscape:label="thumb"
     style="display:inline">
    <path
       style="fill:#e9b96e;fill-opacity:1;stroke:#231705;stroke-width:1px;stroke-linecap:butt;stroke-linejoin:round;stroke-opacity:1;display:inline"
       d="M 8.0625 5.4375 C 7.6297098 5.3979565 7.317925 5.7306769 7 6 C 5.4529102 7.310582 6 12 6 12 C 6 12 6.2297529 14.026751 6 15 C 5.4862569 17.176251 3 21 3 21 L 9 21 C 9 21 10.907997 18.25909 12 17 C 12.308865 16.643876 12.691135 16.356124 13 16 C 14.092003 14.74091 16 12 16 12 L 9.5 12 L 9.34375 11.5 L 9 12 L 8 11 C 8 10 9 10 9 6 C 8.625 5.625 8.3221741 5.4612261 8.0625 5.4375 z "
       id="path5718" />
  </g>
</svg>
